<svg width="72" height="57" viewBox="0 0 72 57" fill="none" xmlns="http://www.w3.org/2000/svg">
<mask id="mask0_626_26" style="mask-type:luminance" maskUnits="userSpaceOnUse" x="0" y="0" width="72" height="57">
<path d="M71.4575 0.112793H0.45752V56.1128H71.4575V0.112793Z" fill="white"/>
</mask>
<g mask="url(#mask0_626_26)">
<mask id="mask1_626_26" style="mask-type:luminance" maskUnits="userSpaceOnUse" x="0" y="0" width="72" height="57">
<path d="M71.4575 0.112793H0.45752V56.1128H71.4575V0.112793Z" fill="white"/>
</mask>
<g mask="url(#mask1_626_26)">
<mask id="mask2_626_26" style="mask-type:luminance" maskUnits="userSpaceOnUse" x="0" y="0" width="72" height="57">
<path d="M71.4575 0.112793H0.45752V56.1128H71.4575V0.112793Z" fill="white"/>
</mask>
<g mask="url(#mask2_626_26)">
<path d="M13.5605 28.5156H9.38379V8.0708H19.6549V12.2476H13.5605V16.1966H19.6549V20.3734H13.5605V28.5156Z" fill="#1A1A1A"/>
<path d="M25.749 24.3226H29.6982V12.2476H25.749V24.3226ZM23.6038 28.5156V26.4679H21.5723V10.1023H23.6038V8.07086H31.8434V10.1023H33.8749V26.4679H31.8434V28.5156H23.6038ZM21.686 8.13587H23.6038V10.1023H21.686V8.13587ZM31.8434 8.07086L33.8749 8.0708V10.1023H31.8434V8.07086ZM31.8434 26.4679H33.8749V28.4505H31.8434V26.4679ZM21.5723 26.4679H23.6038V28.5156L21.5723 28.5155V26.4679Z" fill="#1A1A1A"/>
<path d="M46.0636 28.5156H35.7925V24.3225H43.9184V20.3734H37.8239V18.3419H35.7925V10.1023H37.8239V8.0708H48.0951V12.2476H39.9692V16.1966H46.0636V18.2281H48.0951V26.4678H46.0636V28.5156ZM35.9062 8.13581H37.8239V10.1023H35.9062V8.13581ZM35.7925 18.3419H37.8239V20.3734H35.7925V18.3419ZM46.0636 16.1966H48.0951V18.2281H46.0636V16.1966ZM46.0636 26.4678H48.0951V28.4506H46.0636V26.4678Z" fill="#1A1A1A"/>
<path d="M60.2843 28.5156H50.0132V24.3225H58.1391V20.3734H52.0447V18.3419H50.0132V10.1023H52.0447V8.0708H62.3158V12.2476H54.1899V16.1966H60.2843V18.2281H62.3158V26.4678H60.2843V28.5156ZM50.1269 8.13581H52.0447V10.1023H50.1269V8.13581ZM50.0132 18.3419H52.0447V20.3734H50.0132V18.3419ZM60.2843 16.1966H62.3158V18.2281H60.2843V16.1966ZM60.2843 26.4678H62.3158V28.4506H60.2843V26.4678Z" fill="#1A1A1A"/>
<path d="M10.8509 47.1926V45.7103H9.38281V32.3933H12.4012V44.1574H15.2552V32.3933H18.2736V45.7103H16.8055V47.1926H10.8509ZM9.38281 45.7103H10.8509V47.1926H9.38281V45.7103ZM16.8055 45.7103H18.2736V47.1456H16.8055V45.7103Z" fill="#1A1A1A"/>
<path d="M22.6776 47.1926H19.6592V32.3933H28.55V47.1926H25.5316V35.4167H22.6776V47.1926Z" fill="#1A1A1A"/>
<path d="M32.9545 47.1926H29.936V32.3933H32.9545V47.1926Z" fill="#1A1A1A"/>
<path d="M40.2949 47.1926H37.2765V35.4167H34.3403V32.3933H43.2311V35.4167H40.2949V47.1926Z" fill="#1A1A1A"/>
<path d="M52.0399 47.1926H44.6172V32.3933H52.0399V35.4167H47.6356V38.2754H52.0399V41.2988H47.6356V44.1574H52.0399V47.1926Z" fill="#1A1A1A"/>
<path d="M56.4442 44.1574H59.2982V35.4167H56.4442V44.1574ZM53.4258 47.1926V32.3933H60.8486V33.8638H62.3167V45.7103H60.8486V47.1926H53.4258Z" fill="#1A1A1A"/>
<path d="M69.5207 1.65625H2.17822V53.6073H69.5207V1.65625Z" stroke="#1A1A1A" stroke-width="2.73076"/>
</g>
</g>
</g>
</svg>
